<svg width="69" height="99" viewBox="0 0 69 99" fill="none" xmlns="http://www.w3.org/2000/svg">
<path fill-rule="evenodd" clip-rule="evenodd" d="M9.50182 56.8016C9.83979 56.1862 10.1998 55.5846 10.5809 54.9978C5.85517 49.4885 3 42.3277 3 34.5C3 17.103 17.103 3 34.5 3C51.897 3 66 17.103 66 34.5C66 42.3277 63.1448 49.4885 58.4191 54.9978C58.8002 55.5846 59.1602 56.1862 59.4982 56.8016C64.7859 50.8787 68 43.0647 68 34.5C68 15.9985 53.0015 1 34.5 1C15.9985 1 1 15.9985 1 34.5C1 43.0647 4.21405 50.8787 9.50182 56.8016ZM9.00643 57.7453C3.4118 51.613 0 43.455 0 34.5C0 15.4462 15.4462 0 34.5 0C53.5538 0 69 15.4462 69 34.5C69 43.455 65.5882 51.613 59.9936 57.7453C61.9173 61.5828 63 65.915 63 70.5C63 86.2401 50.2401 99 34.5 99C18.7599 99 6 86.2401 6 70.5C6 65.915 7.08272 61.5828 9.00643 57.7453ZM34.5 42C24.8487 42 16.3179 46.7974 11.1621 54.1376C6.69287 48.8317 4 41.9803 4 34.5C4 17.6553 17.6553 4 34.5 4C51.3447 4 65 17.6553 65 34.5C65 41.9803 62.3071 48.8317 57.8379 54.1376C52.6821 46.7974 44.1513 42 34.5 42Z" fill="#FFE6A6"/>
</svg>
