<svg width="104" height="104" viewBox="0 0 104 104" fill="none" xmlns="http://www.w3.org/2000/svg">
<rect width="104" height="104" rx="10" fill="white"/>
<line x1="71.9393" y1="27.9393" x2="84.9393" y2="14.9393" stroke="#414141" stroke-width="3"/>
<line x1="73.9393" y1="28.0607" x2="66.9393" y2="21.0607" stroke="#414141" stroke-width="3"/>
<path d="M11.75 82.46H8.06V81.5H16.55V82.46H12.86V92H11.75V82.46ZM20.503 92.075C19.743 92.075 19.058 91.905 18.448 91.565C17.838 91.215 17.358 90.735 17.008 90.125C16.658 89.515 16.483 88.825 16.483 88.055C16.483 87.285 16.658 86.595 17.008 85.985C17.358 85.375 17.838 84.9 18.448 84.56C19.058 84.22 19.743 84.05 20.503 84.05C21.263 84.05 21.948 84.22 22.558 84.56C23.168 84.9 23.643 85.375 23.983 85.985C24.333 86.595 24.508 87.285 24.508 88.055C24.508 88.825 24.333 89.515 23.983 90.125C23.643 90.735 23.168 91.215 22.558 91.565C21.948 91.905 21.263 92.075 20.503 92.075ZM20.503 91.13C21.063 91.13 21.563 91.005 22.003 90.755C22.453 90.495 22.803 90.13 23.053 89.66C23.303 89.19 23.428 88.655 23.428 88.055C23.428 87.455 23.303 86.92 23.053 86.45C22.803 85.98 22.453 85.62 22.003 85.37C21.563 85.11 21.063 84.98 20.503 84.98C19.943 84.98 19.438 85.11 18.988 85.37C18.548 85.62 18.198 85.98 17.938 86.45C17.688 86.92 17.563 87.455 17.563 88.055C17.563 88.655 17.688 89.19 17.938 89.66C18.198 90.13 18.548 90.495 18.988 90.755C19.438 91.005 19.943 91.13 20.503 91.13ZM26.9073 81.5H31.1823C32.2923 81.5 33.2723 81.725 34.1223 82.175C34.9723 82.615 35.6323 83.235 36.1023 84.035C36.5723 84.825 36.8073 85.73 36.8073 86.75C36.8073 87.77 36.5723 88.68 36.1023 89.48C35.6323 90.27 34.9723 90.89 34.1223 91.34C33.2723 91.78 32.2923 92 31.1823 92H26.9073V81.5ZM31.1223 91.04C32.0423 91.04 32.8473 90.86 33.5373 90.5C34.2273 90.13 34.7623 89.625 35.1423 88.985C35.5223 88.335 35.7123 87.59 35.7123 86.75C35.7123 85.91 35.5223 85.17 35.1423 84.53C34.7623 83.88 34.2273 83.375 33.5373 83.015C32.8473 82.645 32.0423 82.46 31.1223 82.46H28.0173V91.04H31.1223ZM42.2998 92.075C41.5398 92.075 40.8548 91.905 40.2448 91.565C39.6348 91.215 39.1548 90.735 38.8048 90.125C38.4548 89.515 38.2798 88.825 38.2798 88.055C38.2798 87.285 38.4548 86.595 38.8048 85.985C39.1548 85.375 39.6348 84.9 40.2448 84.56C40.8548 84.22 41.5398 84.05 42.2998 84.05C43.0598 84.05 43.7448 84.22 44.3548 84.56C44.9648 84.9 45.4398 85.375 45.7798 85.985C46.1298 86.595 46.3048 87.285 46.3048 88.055C46.3048 88.825 46.1298 89.515 45.7798 90.125C45.4398 90.735 44.9648 91.215 44.3548 91.565C43.7448 91.905 43.0598 92.075 42.2998 92.075ZM42.2998 91.13C42.8598 91.13 43.3598 91.005 43.7998 90.755C44.2498 90.495 44.5998 90.13 44.8498 89.66C45.0998 89.19 45.2248 88.655 45.2248 88.055C45.2248 87.455 45.0998 86.92 44.8498 86.45C44.5998 85.98 44.2498 85.62 43.7998 85.37C43.3598 85.11 42.8598 84.98 42.2998 84.98C41.7398 84.98 41.2348 85.11 40.7848 85.37C40.3448 85.62 39.9948 85.98 39.7348 86.45C39.4848 86.92 39.3598 87.455 39.3598 88.055C39.3598 88.655 39.4848 89.19 39.7348 89.66C39.9948 90.13 40.3448 90.495 40.7848 90.755C41.2348 91.005 41.7398 91.13 42.2998 91.13Z" fill="#636363"/>
</svg>
