<svg width="75" height="24" viewBox="0 0 75 24" fill="none" xmlns="http://www.w3.org/2000/svg">
<path d="M22.464 6.088L17.784 19H14.184L11.28 10.984L8.28 19H4.68L0.024 6.088H3.552L6.6 14.824L9.768 6.088H12.936L16.008 14.824L19.152 6.088H22.464ZM32.0526 5.896C33.6526 5.896 34.9406 6.376 35.9166 7.336C36.9086 8.296 37.4046 9.72 37.4046 11.608V19H33.6606V12.184C33.6606 11.16 33.4366 10.4 32.9886 9.904C32.5406 9.392 31.8926 9.136 31.0446 9.136C30.1006 9.136 29.3486 9.432 28.7886 10.024C28.2286 10.6 27.9486 11.464 27.9486 12.616V19H24.2046V1.192H27.9486V7.432C28.4446 6.936 29.0446 6.56 29.7486 6.304C30.4526 6.032 31.2206 5.896 32.0526 5.896ZM40.7983 6.088H44.5423V19H40.7983V6.088ZM42.6703 4.288C41.9823 4.288 41.4223 4.088 40.9903 3.688C40.5583 3.288 40.3423 2.792 40.3423 2.2C40.3423 1.608 40.5583 1.112 40.9903 0.711999C41.4223 0.311999 41.9823 0.111999 42.6703 0.111999C43.3583 0.111999 43.9183 0.303999 44.3503 0.688C44.7823 1.072 44.9983 1.552 44.9983 2.128C44.9983 2.752 44.7823 3.272 44.3503 3.688C43.9183 4.088 43.3583 4.288 42.6703 4.288ZM52.3611 19.192C51.2891 19.192 50.2411 19.064 49.2171 18.808C48.1931 18.536 47.3771 18.2 46.7691 17.8L48.0171 15.112C48.5931 15.48 49.2891 15.784 50.1051 16.024C50.9211 16.248 51.7211 16.36 52.5051 16.36C54.0891 16.36 54.8811 15.968 54.8811 15.184C54.8811 14.816 54.6651 14.552 54.2331 14.392C53.8011 14.232 53.1371 14.096 52.2411 13.984C51.1851 13.824 50.3131 13.64 49.6251 13.432C48.9371 13.224 48.3371 12.856 47.8251 12.328C47.3291 11.8 47.0811 11.048 47.0811 10.072C47.0811 9.256 47.3131 8.536 47.7771 7.912C48.2571 7.272 48.9451 6.776 49.8411 6.424C50.7531 6.072 51.8251 5.896 53.0571 5.896C53.9691 5.896 54.8731 6 55.7691 6.208C56.6811 6.4 57.4331 6.672 58.0251 7.024L56.7771 9.688C55.6411 9.048 54.4011 8.728 53.0571 8.728C52.2571 8.728 51.6571 8.84 51.2571 9.064C50.8571 9.288 50.6571 9.576 50.6571 9.928C50.6571 10.328 50.8731 10.608 51.3051 10.768C51.7371 10.928 52.4251 11.08 53.3691 11.224C54.4251 11.4 55.2891 11.592 55.9611 11.8C56.6331 11.992 57.2171 12.352 57.7131 12.88C58.2091 13.408 58.4571 14.144 58.4571 15.088C58.4571 15.888 58.2171 16.6 57.7371 17.224C57.2571 17.848 56.5531 18.336 55.6251 18.688C54.7131 19.024 53.6251 19.192 52.3611 19.192ZM68.3991 5.896C69.5991 5.896 70.6871 6.176 71.6631 6.736C72.6551 7.28 73.4311 8.056 73.9911 9.064C74.5511 10.056 74.8311 11.216 74.8311 12.544C74.8311 13.872 74.5511 15.04 73.9911 16.048C73.4311 17.04 72.6551 17.816 71.6631 18.376C70.6871 18.92 69.5991 19.192 68.3991 19.192C66.7511 19.192 65.4551 18.672 64.5111 17.632V23.656H60.7671V6.088H64.3431V7.576C65.2711 6.456 66.6231 5.896 68.3991 5.896ZM67.7511 16.12C68.7111 16.12 69.4951 15.8 70.1031 15.16C70.7271 14.504 71.0391 13.632 71.0391 12.544C71.0391 11.456 70.7271 10.592 70.1031 9.952C69.4951 9.296 68.7111 8.968 67.7511 8.968C66.7911 8.968 65.9991 9.296 65.3751 9.952C64.7671 10.592 64.4631 11.456 64.4631 12.544C64.4631 13.632 64.7671 14.504 65.3751 15.16C65.9991 15.8 66.7911 16.12 67.7511 16.12Z" fill="#414141"/>
</svg>
